<?xml version="1.0" standalone="no"?>
<!DOCTYPE svg PUBLIC "-//W3C//DTD SVG 20010904//EN"
 "http://www.w3.org/TR/2001/REC-SVG-20010904/DTD/svg10.dtd">
<svg version="1.0" xmlns="http://www.w3.org/2000/svg"
 width="2206.000000pt" height="2206.000000pt" viewBox="0 0 2206.000000 2206.000000"
 preserveAspectRatio="xMidYMid meet">
<metadata>
Created by potrace 1.14, written by Peter Selinger 2001-2017
</metadata>
<g transform="translate(0.000000,2206.000000) scale(0.100000,-0.100000)"
fill="#000000" stroke="none">
<path d="M2956 22051 c-5 -9 2 -12680 7 -12741 2 -30 8 -107 11 -170 4 -63 9
-126 11 -140 2 -14 7 -59 10 -100 3 -41 8 -82 10 -90 2 -8 7 -45 10 -82 3 -37
7 -75 9 -85 3 -16 8 -53 22 -153 3 -19 12 -75 21 -125 8 -49 17 -103 20 -120
3 -16 18 -93 35 -170 16 -77 31 -150 34 -163 46 -226 208 -753 313 -1017 132
-330 357 -793 491 -1005 5 -8 27 -45 49 -82 78 -127 225 -344 324 -478 89
-119 211 -276 227 -290 3 -3 30 -34 60 -70 214 -253 472 -511 755 -756 117
-101 187 -155 197 -152 5 2 168 161 361 354 194 194 382 374 420 402 99 74
219 129 349 161 100 25 128 28 243 26 127 -3 147 -5 230 -26 300 -75 569 -317
675 -606 l22 -61 63 24 c35 13 77 26 92 29 15 3 35 8 43 9 8 2 42 7 76 11 219
25 414 -11 595 -111 182 -101 316 -240 409 -423 54 -108 100 -280 100 -376 0
-25 3 -46 8 -46 4 -1 25 -3 47 -4 365 -18 687 -231 854 -563 31 -61 68 -168
77 -222 3 -14 7 -33 10 -42 3 -10 7 -66 9 -124 3 -59 6 -108 7 -109 2 -1 44
-5 93 -8 224 -14 416 -102 594 -272 105 -100 162 -174 218 -281 117 -228 138
-488 58 -729 -46 -137 -107 -245 -192 -338 l-32 -35 182 -118 c100 -65 240
-156 312 -203 71 -48 134 -88 140 -91 5 -3 71 -45 145 -94 196 -129 240 -148
370 -152 199 -7 346 68 454 231 124 188 107 444 -41 615 -30 34 -613 477
-1091 829 -35 25 -69 51 -75 56 -7 6 -28 22 -47 35 -19 13 -37 27 -40 30 -3 3
-30 23 -60 45 -74 53 -67 48 -136 104 -71 58 -97 104 -96 177 1 124 105 219
228 208 60 -5 70 -11 309 -191 110 -82 227 -169 260 -193 33 -24 65 -48 70
-52 16 -13 124 -93 400 -299 143 -106 418 -310 610 -454 411 -307 412 -308
490 -333 133 -44 264 -35 390 27 256 127 360 430 235 682 -56 114 -48 107
-370 339 -107 77 -202 146 -210 153 -9 7 -38 28 -65 47 -28 19 -112 79 -187
135 -76 55 -203 147 -284 205 -80 58 -151 110 -158 115 -6 6 -27 22 -46 35
-41 28 -390 281 -405 293 -5 4 -155 113 -332 241 -381 275 -364 263 -418 303
-55 41 -87 106 -87 174 1 56 29 122 65 152 34 29 106 57 140 56 72 -1 102 -19
310 -172 29 -21 74 -50 100 -63 26 -14 76 -45 110 -71 99 -73 184 -136 219
-161 41 -29 259 -188 273 -199 6 -5 168 -123 360 -263 193 -140 378 -275 411
-300 34 -25 102 -74 150 -109 49 -36 130 -95 179 -131 50 -36 127 -93 173
-126 46 -32 118 -86 160 -119 277 -217 333 -246 494 -250 145 -5 264 39 364
132 245 231 214 615 -66 809 -25 17 -162 117 -305 223 -143 105 -269 197 -280
205 -21 16 -303 223 -344 253 -20 15 -457 335 -1115 818 -60 44 -115 86 -122
92 -7 7 -17 13 -21 13 -5 0 -31 21 -59 46 -41 40 -155 126 -349 266 -175 127
-197 148 -215 213 -38 135 61 265 203 267 61 0 97 -19 271 -146 78 -56 249
-180 381 -276 132 -95 263 -189 290 -210 28 -20 248 -180 490 -355 242 -175
500 -361 573 -414 155 -113 207 -150 293 -212 35 -25 181 -130 324 -234 561
-407 538 -392 646 -420 276 -72 571 111 630 392 25 122 -6 288 -71 381 -16 23
-30 45 -30 47 0 7 -89 87 -139 125 -139 105 -347 265 -351 270 -3 3 -34 27
-70 53 -36 26 -92 69 -126 95 -33 26 -105 81 -160 122 -54 41 -101 77 -104 80
-3 4 -32 26 -65 51 -33 24 -66 49 -75 56 -33 27 -180 139 -206 158 -15 11 -39
29 -53 41 -14 11 -105 81 -201 154 -96 74 -220 168 -275 210 -55 43 -269 206
-475 364 -206 157 -382 292 -390 299 -8 7 -67 51 -130 99 -63 48 -171 130
-240 183 -69 53 -138 106 -154 118 -16 12 -111 85 -211 162 -181 139 -197 151
-304 232 -31 23 -60 46 -66 50 -5 5 -37 29 -70 54 l-60 46 -179 -59 c-255 -84
-556 -169 -721 -202 -5 -1 -23 -5 -40 -9 -49 -11 -88 -18 -115 -21 -14 -2 -70
-10 -125 -19 -154 -25 -163 -26 -275 -34 -533 -36 -916 54 -1196 279 -185 149
-324 391 -350 608 -2 19 -6 51 -8 70 -3 19 -5 40 -5 46 -1 10 -19 18 -71 29
-46 10 -210 74 -307 120 -483 229 -856 609 -1124 1146 -112 223 -211 547 -235
764 -4 39 -9 73 -10 78 -1 4 -2 2819 -3 6255 l-1 6249 -2215 0 c-1219 0 -2217
-3 -2219 -6z"/>
<path d="M14669 15796 c0 -3444 -2 -6281 -4 -6306 -13 -178 -21 -263 -31 -320
-2 -14 -6 -45 -9 -70 -3 -25 -8 -56 -11 -70 -3 -14 -8 -36 -10 -50 -2 -14 -11
-59 -20 -100 -9 -41 -17 -79 -18 -85 -1 -5 -5 -19 -9 -30 -3 -11 -8 -32 -11
-46 -6 -38 -75 -267 -97 -322 -11 -26 -19 -49 -19 -51 0 -14 53 4 165 54 22
10 186 80 365 155 346 147 380 157 452 126 113 -48 164 -177 113 -285 -22 -45
-80 -97 -132 -115 -21 -8 -60 -24 -88 -36 -27 -13 -79 -35 -115 -50 -62 -26
-131 -56 -175 -75 -54 -24 -367 -156 -420 -177 -57 -22 -67 -23 -240 -18 -99
3 -202 7 -230 9 -122 9 -222 17 -245 21 -21 3 -64 8 -165 20 -19 2 -130 18
-145 20 -27 5 -105 19 -110 20 -3 1 -25 5 -50 9 -155 27 -441 109 -548 157
-87 40 -340 138 -432 168 -189 61 -304 83 -445 83 -110 0 -200 -17 -295 -57
-54 -23 -320 -175 -425 -244 -49 -32 -37 -25 -280 -158 -413 -226 -744 -396
-960 -493 -128 -57 -425 -198 -434 -206 -11 -10 70 -145 117 -196 127 -136
299 -210 572 -244 59 -7 321 -8 385 0 28 3 75 8 105 11 261 28 547 91 920 203
36 11 139 45 230 77 305 106 314 106 455 -5 33 -26 110 -84 170 -130 254 -194
660 -505 665 -510 3 -3 50 -39 105 -80 55 -41 102 -77 105 -80 6 -6 146 -113
194 -148 17 -12 44 -33 61 -46 16 -13 143 -110 280 -215 138 -106 257 -197
265 -204 9 -7 60 -46 115 -87 55 -41 102 -77 105 -81 3 -3 82 -63 175 -134 94
-71 172 -131 175 -134 3 -3 70 -55 150 -115 80 -60 157 -119 171 -130 14 -12
40 -32 59 -46 18 -14 94 -72 169 -129 75 -58 201 -154 281 -215 80 -60 168
-128 196 -150 28 -23 143 -111 255 -196 185 -140 349 -287 349 -312 0 -11 74
40 255 176 107 80 402 314 431 341 6 6 35 31 64 56 183 155 434 396 597 576
252 276 477 580 648 878 55 96 215 408 215 420 0 4 12 32 26 63 47 102 140
348 159 422 2 8 18 60 35 115 33 108 105 396 114 459 4 21 8 41 10 45 4 6 12
50 21 111 2 14 11 66 19 115 8 50 18 113 21 140 3 28 8 64 10 80 4 28 7 55 20
167 6 61 13 149 20 253 3 50 9 115 12 145 7 73 11 13510 4 13512 -3 1 -1002 2
-2218 3 l-2213 2 -1 -6261z"/>
<path d="M6845 4579 c-71 -11 -162 -47 -220 -86 -47 -31 -1145 -1119 -1145
-1135 0 -3 -6 -13 -14 -20 -29 -30 -75 -137 -91 -216 -4 -18 -7 -64 -7 -101
-2 -416 442 -684 817 -493 63 32 122 88 613 576 299 298 561 564 581 591 166
223 142 533 -55 730 -125 123 -304 181 -479 154z"/>
<path d="M8165 3963 c-60 -12 -148 -51 -205 -89 -75 -50 -1446 -1419 -1498
-1496 -127 -186 -129 -432 -5 -618 180 -272 561 -335 809 -135 22 18 354 347
739 732 440 440 712 719 736 756 62 96 84 174 84 302 0 65 -6 126 -14 150 -53
158 -159 285 -291 348 -41 19 -99 40 -128 46 -51 11 -186 13 -227 4z"/>
<path d="M9258 3005 c-2 -2 -28 -5 -58 -8 -75 -8 -160 -39 -223 -81 -41 -28
-1206 -1179 -1348 -1333 -55 -60 -103 -150 -126 -238 -12 -46 -11 -184 1 -235
32 -134 93 -226 226 -341 75 -64 207 -107 333 -107 101 -1 219 36 301 92 28
19 351 336 717 703 664 667 665 668 702 748 98 216 57 451 -109 618 -90 91
-177 143 -279 165 -49 11 -132 21 -137 17z"/>
<path d="M10150 1924 c-76 -20 -148 -57 -200 -103 -125 -108 -917 -912 -952
-966 -116 -178 -107 -429 24 -598 56 -74 159 -164 225 -196 164 -82 360 -74
519 21 32 20 224 204 521 502 503 505 512 515 548 652 16 59 21 174 10 228
-38 192 -208 384 -400 452 -66 23 -222 27 -295 8z"/>
</g>
</svg>
