<?xml version="1.0" encoding="UTF-8"?>
<!DOCTYPE svg PUBLIC "-//W3C//DTD SVG 1.1//EN" "http://www.w3.org/Graphics/SVG/1.1/DTD/svg11.dtd">
<!-- Creator: CorelDRAW 2021 (64-Bit) -->
<svg xmlns="http://www.w3.org/2000/svg" xml:space="preserve" width="957px" height="189px" version="1.1" style="shape-rendering:geometricPrecision; text-rendering:geometricPrecision; image-rendering:optimizeQuality; fill-rule:evenodd; clip-rule:evenodd"
viewBox="0 0 957 189.04"
 xmlns:xlink="http://www.w3.org/1999/xlink"
 xmlns:xodm="http://www.corel.com/coreldraw/odm/2003">
 <defs>
  <style type="text/css">
   <![CDATA[
    .fil1 {fill:#FF6600}
    .fil0 {fill:#336699;fill-rule:nonzero}
   ]]>
  </style>
 </defs>
 <g id="Слой_x0020_1">
  <metadata id="CorelCorpID_0Corel-Layer"/>
  <path class="fil0" d="M9.46 150.51l0 -143.04 50.82 0c22.67,0 40.64,6.3 53.91,18.9 13.27,12.61 19.91,30.05 19.91,52.32 0,22.41 -6.64,39.98 -19.91,52.72 -13.27,12.73 -31.24,19.1 -53.91,19.1l-50.82 0zm35.01 -30.01l14.41 0c12.27,0 21.84,-3.6 28.71,-10.8 6.86,-7.2 10.3,-17.54 10.3,-31.01 0,-13.34 -3.47,-23.54 -10.4,-30.61 -6.94,-7.07 -16.48,-10.6 -28.61,-10.6l-14.41 0 0 83.02z"/>
  <path id="_1" class="fil0" d="M163.31 138.01c-11.2,-9.94 -16.81,-22.84 -16.81,-38.71 0,-15.88 5.61,-28.88 16.81,-39.02 11.2,-10.13 25.01,-15.2 41.41,-15.2 16.54,0 30.44,5.03 41.71,15.1 11.28,10.07 16.91,23.11 16.91,39.12 0,15.87 -5.6,28.77 -16.8,38.71 -11.21,9.94 -25.08,14.9 -41.62,14.9 -16.54,0 -30.41,-4.96 -41.61,-14.9zm18.2 -38.71c0,7.47 2.27,13.47 6.81,18 4.53,4.54 10.07,6.8 16.6,6.8 6.54,0 12.07,-2.26 16.61,-6.8 4.53,-4.53 6.8,-10.53 6.8,-18 0,-7.61 -2.27,-13.74 -6.8,-18.41 -4.54,-4.67 -10.07,-7 -16.61,-7 -6.53,0 -12.07,2.33 -16.6,7 -4.54,4.67 -6.81,10.8 -6.81,18.41z"/>
  <path id="_2" class="fil0" d="M421.69 150.51l0 -143.04 49.82 0c12.67,0 21.94,1.13 27.8,3.4 8.27,3.2 14.74,8.37 19.41,15.5 4.67,7.14 7,15.84 7,26.11 0,8 -1.86,15.64 -5.6,22.91 -3.73,7.27 -9,12.64 -15.8,16.1l0 0.4c1.33,1.74 3.13,4.61 5.4,8.61l27.81 50.01 -39.02 0 -25.4 -48.21 -16.41 0 0 48.21 -35.01 0zm35.01 -78.22l15.21 0c5.73,0 10.2,-1.54 13.4,-4.6 3.2,-3.07 4.8,-7.41 4.8,-13.01 0,-7.87 -2.8,-12.94 -8.4,-15.2 -3.07,-1.34 -7.47,-2 -13.21,-2l-11.8 0 0 34.81z"/>
  <path id="_3" class="fil0" d="M540.13 98.9c0,-15.48 4.86,-28.31 14.6,-38.52 9.74,-10.2 22.74,-15.3 39.01,-15.3 14.81,0 26.45,4.63 34.92,13.9 8.46,9.27 12.7,21.24 12.7,35.91 0,2.41 -0.27,6.01 -0.8,10.81l-65.02 0c1.2,6 4.03,10.57 8.5,13.7 4.47,3.14 9.64,4.7 15.51,4.7 8.53,0 18,-3.46 28.41,-10.4l12.8 24.21c-5.47,4.67 -12.17,8.33 -20.11,11 -7.93,2.67 -15.9,4 -23.9,4 -17.48,0 -31.28,-5.33 -41.42,-16 -10.14,-10.67 -15.2,-23.34 -15.2,-38.01zm36.21 -13.01l30.81 0c0,-4.4 -1.3,-8.07 -3.9,-11 -2.6,-2.94 -6.04,-4.4 -10.31,-4.4 -8.8,0 -14.33,5.13 -16.6,15.4z"/>
  <path id="_4" class="fil0" d="M659.36 150.51l0 -103.03 33.22 0 0 9 -0.4 6.4 0.4 0c7.06,-11.87 18,-17.8 32.81,-17.8 24.67,0 37.01,12.87 37.01,38.61l0 66.82 -34.61 0 0 -60.42c0,-9.07 -3.8,-13.6 -11.41,-13.6 -7.33,0 -12.9,2.6 -16.7,7.8 -3.8,5.2 -5.7,11.74 -5.7,19.61l0 46.61 -34.62 0z"/>
  <path id="_5" class="fil0" d="M790.61 112.5l0 -36.21 -13.21 0 0 -27.01 14.21 0 0 -29.61 33.61 0 0 29.61 21.6 0 0 27.01 -21.6 0 0 31.61c0,8.8 6.13,13.2 18.4,13.2 1.6,0 3.14,-0.06 4.6,-0.2l0 30.01c-5.2,0.4 -8.33,0.6 -9.4,0.6 -3.2,0 -6.3,-0.16 -9.3,-0.5 -3,-0.33 -6.47,-0.96 -10.4,-1.9 -3.94,-0.93 -7.47,-2.33 -10.61,-4.2 -3.13,-1.87 -6.1,-4.17 -8.9,-6.9 -2.8,-2.74 -5,-6.3 -6.6,-10.71 -1.6,-4.4 -2.4,-9.33 -2.4,-14.8z"/>
  <path id="_6" class="fil0" d="M882.24 106.3l0 -10c0,-4.94 1.06,-9.51 3.2,-13.71 2.13,-4.2 4.76,-7.67 7.9,-10.4 3.13,-2.74 6.23,-5.34 9.3,-7.81 3.07,-2.46 5.67,-5.1 7.8,-7.9 2.14,-2.8 3.21,-5.73 3.21,-8.8 0,-3.33 -1.4,-6.14 -4.21,-8.4 -2.8,-2.27 -6.13,-3.4 -10,-3.4 -6.13,0 -12.47,2.86 -19,8.6l-19.21 -23.41c11.07,-11.07 25.01,-16.6 41.81,-16.6 12.27,0 23.11,3.5 32.51,10.5 9.41,7 14.11,16.57 14.11,28.71 0,6 -1.17,11.5 -3.5,16.5 -2.34,5 -5.21,9.07 -8.61,12.21 -3.4,3.13 -6.77,6.07 -10.1,8.8 -3.33,2.73 -6.17,5.6 -8.5,8.6 -2.34,3 -3.5,6.1 -3.5,9.31l0 7.2 -33.21 0zm0.8 44.21l0 -30.01 31.61 0 0 30.01 -31.61 0z"/>
  <g id="_1939757422544">
   <path class="fil1" d="M329.79 160.4l-0.2 -0.19c-0.78,-0.79 -1.85,-1.24 -2.96,-1.25l-0.07 0c0,0 0,0 0,0 -1.14,0 -2.23,0.45 -3.03,1.25l-9.81 9.8c-0.8,0.81 -1.26,1.9 -1.26,3.04 0,1.14 0.46,2.23 1.26,3.03l0.2 0.2c0.8,0.8 1.89,1.25 3.02,1.25 0.01,0 0.01,0 0.01,0l0.07 0c1.11,-0.02 2.17,-0.46 2.96,-1.25l9.81 -9.81c0.81,-0.8 1.26,-1.89 1.26,-3.03 0,-1.14 -0.45,-2.24 -1.26,-3.04z"/>
   <path class="fil1" d="M321.78 152.57c-0.81,-0.81 -1.91,-1.27 -3.06,-1.28l-0.07 0c0,0 -0.01,0 -0.01,0 -1.17,0 -2.29,0.46 -3.12,1.28l-10.68 10.69c-0.84,0.83 -1.3,1.96 -1.3,3.13 0,2.44 1.98,4.42 4.42,4.42 0,0 0,0 0,0l0.07 0c1.15,-0.01 2.25,-0.47 3.06,-1.29l10.69 -10.68c0.83,-0.83 1.3,-1.96 1.3,-3.14 0,-1.17 -0.47,-2.3 -1.3,-3.13l0 0z"/>
   <path class="fil1" d="M311.17 147.71c-0.81,-0.81 -1.91,-1.27 -3.06,-1.29l-0.07 0c0,0 -0.01,0 -0.01,0 -1.17,0 -2.29,0.47 -3.12,1.29l-7.98 7.98c-0.83,0.83 -1.29,1.96 -1.29,3.13 0,2.44 1.98,4.42 4.42,4.42 0,0 0,0 0,0l0.07 0c1.15,-0.01 2.25,-0.47 3.06,-1.29l7.98 -7.97c0.83,-0.83 1.29,-1.96 1.29,-3.14 0,-1.17 -0.46,-2.3 -1.29,-3.13l0 0z"/>
   <path class="fil1" d="M379.74 152.44l-30.35 -23.22c-9.56,3.41 -16.45,3.72 -20.49,0.91 -1.98,-1.36 -3.22,-3.56 -3.35,-5.96 0,-0.04 0,-0.08 0,-0.12 0,-0.04 0,-0.07 0,-0.11 -3.89,-1.03 -7.32,-3.36 -9.71,-6.6 -2.7,-3.52 -4.28,-8.04 -4.18,-11.78l0 -97.52 -35.14 0 0 97.54c0,18.53 7.35,34.48 20.73,45.06l5.3 -5.29c1.45,-1.46 3.43,-2.28 5.49,-2.28 3.43,0 6.46,2.25 7.44,5.54 0.99,-0.44 2.07,-0.67 3.16,-0.67 0,0 0.01,0 0.01,0 0.01,0 0.01,0 0.01,0 4.26,0 7.71,3.43 7.75,7.68l0.15 0c0.01,0 0.02,0 0.03,0 2.01,0 3.94,0.8 5.36,2.22l0.2 0.2c1.43,1.43 2.23,3.36 2.23,5.38 0,0.21 -0.01,0.41 -0.02,0.62l0.21 0c0.01,0 0.02,0 0.03,0 1.98,0 3.88,0.79 5.28,2.2l0.36 0.35c1.4,1.41 2.19,3.32 2.19,5.32 0,1.97 -0.78,3.87 -2.16,5.28l6.75 4.39 0.06 0.04c0.71,0.54 1.58,0.83 2.47,0.83 2.25,0 4.08,-1.83 4.08,-4.09 0,-1.28 -0.6,-2.49 -1.62,-3.26l-10.91 -8.13c-0.45,-0.31 -0.72,-0.83 -0.72,-1.38 0,-0.92 0.74,-1.67 1.67,-1.67 0.38,0 0.75,0.13 1.04,0.37l10.89 8.11 0.02 0 0.04 0.03 4.04 3.05c0.69,0.49 1.51,0.75 2.36,0.75 2.25,0 4.08,-1.83 4.08,-4.08 0,-1.08 -0.42,-2.11 -1.18,-2.87l-18.8 -13.64c-0.47,-0.31 -0.75,-0.83 -0.75,-1.39 0,-0.93 0.75,-1.67 1.67,-1.67 0.38,0 0.74,0.12 1.04,0.36l1.93 1.4c0.21,0.05 0.4,0.14 0.57,0.27l15.93 11.63 0.03 0.02c0.19,0.15 0.36,0.3 0.55,0.46l1.04 0.76c0.67,0.45 1.47,0.7 2.29,0.7 2.25,0 4.08,-1.83 4.08,-4.08 0,-1.22 -0.55,-2.38 -1.5,-3.16l-18.09 -13.27c-0.15,-0.11 -0.27,-0.25 -0.38,-0.4l-3.57 -2.59c-0.4,-0.32 -0.64,-0.8 -0.64,-1.32 0,-0.92 0.75,-1.67 1.67,-1.67 0.33,0 0.65,0.1 0.93,0.28l23.52 17.02c0.7,0.52 1.56,0.81 2.44,0.81 2.25,0 4.08,-1.83 4.08,-4.08 0,-1.29 -0.61,-2.51 -1.65,-3.28l0.01 0z"/>
   <path class="fil1" d="M369.32 8.04l0 97.54c0,0.14 0.01,0.28 0.01,0.42 0,3.64 -0.65,7.26 -1.91,10.67l0.24 0 6.33 -2.69c0.2,-0.08 0.4,-0.12 0.61,-0.12 0.92,0 1.67,0.75 1.67,1.67 0,0.66 -0.38,1.25 -0.97,1.52l-6.66 2.83c-0.2,0.09 -0.42,0.13 -0.64,0.13 -0.01,0 -0.01,0 -0.01,0 -0.06,0 -1.24,0 -2.96,-0.11 -0.03,0 -0.07,0 -0.11,0 -0.1,0 -0.2,-0.01 -0.31,-0.03l-0.1 0c-2.8,-0.22 -6.75,-0.73 -9.64,-1.98 -4.79,-2.05 -7.4,-2.67 -10.18,-0.95 -0.72,0.44 -1.52,0.91 -2.38,1.4 -0.11,0.11 -0.23,0.19 -0.36,0.26 -5.74,3.2 -8.77,4.66 -10.41,5.34 -0.98,0.48 -1.83,0.89 -2.45,1.2 0.32,0.94 0.95,1.74 1.78,2.29 4.24,2.86 13.25,0.19 18.24,-1.66 0.19,-0.07 0.38,-0.1 0.58,-0.1 0.37,0 0.72,0.12 1.02,0.34l31.06 23.78c0.56,0.43 1.05,0.94 1.47,1.5 7.5,-5.35 12.38,-10.3 15.66,-15.94 3.8,-6.52 5.57,-14.17 5.57,-24.07l0 -103.24 -35.15 0z"/>
   <path class="fil1" d="M337.52 168.59c-0.77,-0.76 -1.8,-1.2 -2.88,-1.21l-0.07 0c-0.01,0 -0.01,0 -0.01,0 -1.1,0 -2.16,0.44 -2.94,1.22l-6.66 6.65c-0.78,0.79 -1.22,1.85 -1.22,2.96 0,1.1 0.44,2.16 1.21,2.95l0.36 0.35c0.78,0.78 1.84,1.22 2.95,1.22 0,0 0,0 0,0l0.07 0c1.08,-0.01 2.12,-0.45 2.88,-1.21l6.67 -6.65c0.78,-0.79 1.21,-1.85 1.21,-2.95 0,-1.11 -0.43,-2.17 -1.21,-2.95l-0.36 -0.38z"/>
  </g>
 </g>
</svg>
