<svg xmlns="http://www.w3.org/2000/svg" xml:space="preserve" width="354px" height="354px" version="1.1" style="shape-rendering:geometricPrecision; text-rendering:geometricPrecision; image-rendering:optimizeQuality; fill-rule:evenodd; clip-rule:evenodd"
viewBox="0 0 354 354"
 xmlns:xlink="http://www.w3.org/1999/xlink"
 xmlns:xodm="http://www.corel.com/coreldraw/odm/2003">
 <defs>
  <style type="text/css">
   <![CDATA[
    .fil0 {fill:#336699;fill-rule:nonzero}
   ]]>
  </style>
 </defs>
     <g>
      <path class="fil0" d="M154 13c-44.7,8.69 -80.16,45.32 -87.6,90.33 -4.43,26.89 0.74,53.39 14.16,75.84 1.53,2.56 2.74,4.57 5.47,9.13l0.63 1.05c27.23,45.41 39.12,66.46 51.57,93.14l25.33 54.28c4.99,10.71 20.22,10.71 25.21,0l22.81 -48.85c12.58,-26.97 24.5,-48.34 51.65,-94.28l0.69 -1.17c4.03,-6.83 5.96,-10.1 8.27,-14.02 9.96,-16.92 15.29,-36.22 15.29,-56.28 0,-69.86 -63.46,-122.75 -133.48,-109.17zm94.2 151.34c-2.29,3.91 -4.21,7.16 -8.23,13.97l-0.7 1.17c-27.6,46.71 -39.82,68.62 -52.91,96.67l-10.19 21.83 -12.72 -27.26c-12.99,-27.84 -25.2,-49.46 -52.92,-95.68l-0.64 -1.06c-2.73,-4.55 -3.93,-6.55 -5.45,-9.1 -10.06,-16.83 -13.93,-36.67 -10.58,-57.02 5.55,-33.55 32.19,-61.08 65.44,-67.54 52.78,-10.23 100.35,29.42 100.35,81.85 0,15.06 -3.98,29.5 -11.45,42.17z"/>
      <path class="fil0" d="M176.17 80.43c-23.06,0 -41.75,18.68 -41.75,41.74 0,23.06 18.69,41.74 41.75,41.74 23.06,0 41.74,-18.68 41.74,-41.74 0,-23.06 -18.68,-41.74 -41.74,-41.74zm0 55.66c-7.69,0 -13.92,-6.23 -13.92,-13.92 0,-7.69 6.23,-13.91 13.92,-13.91 7.69,0 13.91,6.22 13.91,13.91 0,7.69 -6.22,13.92 -13.91,13.92z"/>
     </g> 
</svg>
