<svg version="1.0" xmlns="http://www.w3.org/2000/svg" viewBox="0 0 48 48">
  <path d="M3.2 7.2c-1.7 1.7-1.7 23.9 0 25.6 1.7 1.7 29.9 1.7 31.6 0 1.7-1.7 1.7-23.9 0-25.6-1.7-1.7-29.9-1.7-31.6 0zM32 16.5V23l-2.4-1.5c-2.7-1.8-4.8-1.2-8 2.4-1.1 1.2-2.5 2.1-3.3 2.1-1.6 0-1.8-2.6-.2-3.5 1.2-.8-1.7-4.5-3.5-4.5-.5 0-2.7 1.7-4.8 3.7L6 25.4V10h26v6.5z"/>
  <path d="M20.4 13.1c-1 1.7 1.3 3.6 2.7 2.2 1.2-1.2.4-3.3-1.1-3.3-.5 0-1.2.5-1.6 1.1zM40.7 14.6c-.4.4-.7 5.8-.7 12v11.3l-14.7.3c-12.4.3-14.8.5-14.8 1.8s2.5 1.5 15.4 1.8c10.6.2 15.8-.1 16.7-.9 1.2-.9 1.4-3.9 1.2-13.7-.3-11.6-1-14.6-3.1-12.6z"/>
</svg>
